{
    "asset" : {
        "generator" : "Khronos glTF Blender I/O v0.9.36",
        "version" : "2.0"
    },
    "scene" : 0,
    "scenes" : [
        {
            "name" : "Scene",
            "nodes" : [
                7
            ]
        }
    ],
    "nodes" : [
        {
            "name" : "Wing",
            "rotation" : [
                7.282017833176724e-08,
                -1.2091200574104732e-07,
                -0.7102810144424438,
                0.7039182782173157
            ],
            "scale" : [
                0.9999996423721313,
                1,
                1
            ],
            "translation" : [
                -18.891006469726562,
                13.244659423828125,
                35.68860626220703
            ]
        },
        {
            "name" : "Wing(mirrored)",
            "rotation" : [
                -0.7039183974266052,
                0.7102808952331543,
                1.7596906900507747e-06,
                1.4706752153870184e-06
            ],
            "scale" : [
                0.9999999403953552,
                1,
                1
            ],
            "translation" : [
                -18.891008377075195,
                13.244651794433594,
                -35.311405181884766
            ]
        },
        {
            "name" : "Tail",
            "rotation" : [
                5.248459800100136e-08,
                -3.739654808043724e-09,
                -0.35928550362586975,
                0.9332277178764343
            ],
            "scale" : [
                0.9999996423721313,
                0.9999997019767761,
                1
            ],
            "translation" : [
                -9.623565673828125,
                -53.581695556640625,
                -3.030575953744119e-06
            ]
        },
        {
            "name" : "Nose",
            "rotation" : [
                -7.422104886245506e-08,
                1.1089792195662085e-07,
                0.7485916614532471,
                0.6630313396453857
            ],
            "scale" : [
                0.9999997019767761,
                0.9999997019767761,
                1
            ],
            "translation" : [
                10.173579216003418,
                29.690593719482422,
                6.830336474195065e-07
            ]
        },
        {
            "name" : "Hat",
            "rotation" : [
                -4.395284136649025e-08,
                -1.3872702986361674e-08,
                0.018718646839261055,
                0.9998248219490051
            ],
            "scale" : [
                0.9999995827674866,
                0.9999995231628418,
                1
            ],
            "translation" : [
                34.80962371826172,
                15.536849975585938,
                2.6092841380886966e-06
            ]
        },
        {
            "children" : [
                0,
                1,
                2,
                3,
                4
            ],
            "name" : "Body",
            "rotation" : [
                0.7070971727371216,
                0.0036829961463809013,
                -0.7070972323417664,
                -0.0036830278113484383
            ],
            "scale" : [
                0.9999999403953552,
                0.9999997615814209,
                0.9999999403953552
            ],
            "translation" : [
                -7.270972712802859e-09,
                0.16634021699428558,
                5.082193374633789
            ]
        },
        {
            "mesh" : 0,
            "name" : "Model",
            "rotation" : [
                0,
                0,
                0.7071067094802856,
                0.7071068286895752
            ],
            "scale" : [
                0.9523016810417175,
                0.9219914078712463,
                0.9728304743766785
            ],
            "skin" : 0
        },
        {
            "children" : [
                6,
                5
            ],
            "name" : "Armature",
            "rotation" : [
                0.7071067690849304,
                0,
                0,
                0.7071067690849304
            ],
            "scale" : [
                0.02539999969303608,
                0.02539999969303608,
                0.02539999969303608
            ]
        }
    ],
    "materials" : [
        {
            "doubleSided" : true,
            "name" : "Material #29",
            "pbrMetallicRoughness" : {
                "metallicFactor" : 1,
                "roughnessFactor" : 0.858578622341156
            }
        }
    ],
    "meshes" : [
        {
            "name" : "Mesh",
            "primitives" : [
                {
                    "attributes" : {
                        "POSITION" : 0,
                        "NORMAL" : 1,
                        "TEXCOORD_0" : 2,
                        "JOINTS_0" : 3,
                        "WEIGHTS_0" : 4
                    },
                    "indices" : 5,
                    "material" : 0
                }
            ]
        }
    ],
    "skins" : [
        {
            "inverseBindMatrices" : 6,
            "joints" : [
                5,
                0,
                1,
                2,
                3,
                4
            ],
            "name" : "Armature"
        }
    ],
    "accessors" : [
        {
            "bufferView" : 0,
            "componentType" : 5126,
            "count" : 1755,
            "max" : [
                85.03121185302734,
                46.43600845336914,
                51.4394645690918
            ],
            "min" : [
                -47.82426834106445,
                -46.43600845336914,
                -45.76927185058594
            ],
            "type" : "VEC3"
        },
        {
            "bufferView" : 1,
            "componentType" : 5126,
            "count" : 1755,
            "type" : "VEC3"
        },
        {
            "bufferView" : 2,
            "componentType" : 5126,
            "count" : 1755,
            "type" : "VEC2"
        },
        {
            "bufferView" : 3,
            "componentType" : 5123,
            "count" : 1755,
            "type" : "VEC4"
        },
        {
            "bufferView" : 4,
            "componentType" : 5126,
            "count" : 1755,
            "type" : "VEC4"
        },
        {
            "bufferView" : 5,
            "componentType" : 5123,
            "count" : 4080,
            "type" : "SCALAR"
        },
        {
            "bufferView" : 6,
            "componentType" : 5126,
            "count" : 6,
            "type" : "MAT4"
        }
    ],
    "bufferViews" : [
        {
            "buffer" : 0,
            "byteLength" : 21060,
            "byteOffset" : 0
        },
        {
            "buffer" : 0,
            "byteLength" : 21060,
            "byteOffset" : 21060
        },
        {
            "buffer" : 0,
            "byteLength" : 14040,
            "byteOffset" : 42120
        },
        {
            "buffer" : 0,
            "byteLength" : 14040,
            "byteOffset" : 56160
        },
        {
            "buffer" : 0,
            "byteLength" : 28080,
            "byteOffset" : 70200
        },
        {
            "buffer" : 0,
            "byteLength" : 8160,
            "byteOffset" : 98280
        },
        {
            "buffer" : 0,
            "byteLength" : 384,
            "byteOffset" : 106440
        }
    ],
    "buffers" : [
        {
            "byteLength" : 106824,
            "uri" : "data:application/octet-stream;base64,"
        }
    ]
}
