{
    "asset" : {
        "generator" : "Khronos glTF Blender I/O v1.3.48",
        "version" : "2.0"
    },
    "scene" : 0,
    "scenes" : [
        {
            "name" : "Scene",
            "nodes" : [
                7
            ]
        }
    ],
    "nodes" : [
        {
            "name" : "Wing",
            "rotation" : [
                -1.647902649892785e-07,
                9.89547146446057e-08,
                0.7102809548377991,
                0.7039183378219604
            ],
            "scale" : [
                1,
                0.9999996423721313,
                0.9999999403953552
            ],
            "translation" : [
                13.24466609954834,
                -18.89103126525879,
                -35.6885986328125
            ]
        },
        {
            "name" : "Wing(mirrored)",
            "rotation" : [
                0.7102808952331543,
                -0.7039183974266052,
                -2.710254705107218e-07,
                -7.551945202521892e-08
            ],
            "scale" : [
                1,
                1.0000001192092896,
                1
            ],
            "translation" : [
                13.24465560913086,
                -18.891033172607422,
                35.311405181884766
            ]
        },
        {
            "name" : "Tail",
            "rotation" : [
                5.8163180938208825e-09,
                6.58311360979269e-09,
                0.3592853844165802,
                0.9332277774810791
            ],
            "scale" : [
                0.9999997019767761,
                0.9999996423721313,
                1
            ],
            "translation" : [
                -53.581668853759766,
                -9.623592376708984,
                -2.8948938961548265e-06
            ]
        },
        {
            "name" : "Nose",
            "rotation" : [
                1.4631291378464084e-07,
                7.735762030947058e-11,
                -0.7485916614532471,
                0.6630313396453857
            ],
            "scale" : [
                0.9999997615814209,
                0.9999997615814209,
                1
            ],
            "translation" : [
                29.69059944152832,
                10.173567771911621,
                2.7039311589760473e-06
            ]
        },
        {
            "name" : "Hat",
            "rotation" : [
                -4.3865796328645956e-08,
                -1.1897154195139592e-07,
                -0.018718736246228218,
                0.9998248219490051
            ],
            "scale" : [
                0.9999995827674866,
                0.9999995827674866,
                0.9999999403953552
            ],
            "translation" : [
                15.536855697631836,
                34.80961990356445,
                -2.414882942503027e-07
            ]
        },
        {
            "children" : [
                0,
                1,
                2,
                3,
                4
            ],
            "name" : "Body",
            "rotation" : [
                -0.49738895893096924,
                0.5025975108146667,
                -0.4973889887332916,
                0.502597451210022
            ],
            "scale" : [
                0.9999998807907104,
                0.9999995827674866,
                0.9999999403953552
            ],
            "translation" : [
                -7.270971380535229e-09,
                0.16634021699428558,
                5.082193374633789
            ]
        },
        {
            "mesh" : 0,
            "name" : "Model",
            "skin" : 0
        },
        {
            "children" : [
                6,
                5
            ],
            "name" : "Armature",
            "rotation" : [
                0.7071068286895752,
                0,
                0,
                0.7071067094802856
            ],
            "scale" : [
                0.02539999969303608,
                0.02539999969303608,
                0.02539999969303608
            ]
        }
    ],
    "materials" : [
        {
            "doubleSided" : true,
            "emissiveFactor" : [
                0,
                0,
                0
            ],
            "name" : "Material #29.006",
            "pbrMetallicRoughness" : {
                "baseColorTexture" : {
                    "index" : 0,
                    "texCoord" : 0
                },
                "metallicFactor" : 1,
                "roughnessFactor" : 0.858578622341156
            }
        }
    ],
    "meshes" : [
        {
            "name" : "\uba54\uc26c.006",
            "primitives" : [
                {
                    "attributes" : {
                        "POSITION" : 0,
                        "NORMAL" : 1,
                        "TEXCOORD_0" : 2,
                        "JOINTS_0" : 3,
                        "WEIGHTS_0" : 4
                    },
                    "indices" : 5,
                    "material" : 0
                }
            ]
        }
    ],
    "textures" : [
        {
            "source" : 0
        }
    ],
    "images" : [
        {
            "bufferView" : 6,
            "mimeType" : "image/jpeg",
            "name" : "Parrot_Texture"
        }
    ],
    "skins" : [
        {
            "inverseBindMatrices" : 6,
            "joints" : [
                5,
                0,
                1,
                2,
                3,
                4
            ],
            "name" : "Armature"
        }
    ],
    "accessors" : [
        {
            "bufferView" : 0,
            "componentType" : 5126,
            "count" : 1675,
            "max" : [
                1.0874652862548828,
                1.1309539079666138,
                2.056774139404297
            ],
            "min" : [
                -1.0874652862548828,
                -1.2710635662078857,
                -1.1567953824996948
            ],
            "type" : "VEC3"
        },
        {
            "bufferView" : 1,
            "componentType" : 5126,
            "count" : 1675,
            "type" : "VEC3"
        },
        {
            "bufferView" : 2,
            "componentType" : 5126,
            "count" : 1675,
            "type" : "VEC2"
        },
        {
            "bufferView" : 3,
            "componentType" : 5123,
            "count" : 1675,
            "type" : "VEC4"
        },
        {
            "bufferView" : 4,
            "componentType" : 5126,
            "count" : 1675,
            "type" : "VEC4"
        },
        {
            "bufferView" : 5,
            "componentType" : 5123,
            "count" : 4080,
            "type" : "SCALAR"
        },
        {
            "bufferView" : 7,
            "componentType" : 5126,
            "count" : 6,
            "type" : "MAT4"
        }
    ],
    "bufferViews" : [
        {
            "buffer" : 0,
            "byteLength" : 20100,
            "byteOffset" : 0
        },
        {
            "buffer" : 0,
            "byteLength" : 20100,
            "byteOffset" : 20100
        },
        {
            "buffer" : 0,
            "byteLength" : 13400,
            "byteOffset" : 40200
        },
        {
            "buffer" : 0,
            "byteLength" : 13400,
            "byteOffset" : 53600
        },
        {
            "buffer" : 0,
            "byteLength" : 26800,
            "byteOffset" : 67000
        },
        {
            "buffer" : 0,
            "byteLength" : 8160,
            "byteOffset" : 93800
        },
        {
            "buffer" : 0,
            "byteLength" : 103068,
            "byteOffset" : 101960
        },
        {
            "buffer" : 0,
            "byteLength" : 384,
            "byteOffset" : 205028
        }
    ],
    "buffers" : [
        {
            "byteLength" : 205412,
            "uri" : "data:application/octet-stream;base64,"
        }
    ]
}
